<svg width="604" height="604" viewBox="0 0 604 604" fill="none" xmlns="http://www.w3.org/2000/svg">
<mask id="path-1-inside-1_1403_31" fill="white">
<path fill-rule="evenodd" clip-rule="evenodd" d="M322.215 570.789L193.348 548.679L210.878 446.501L126.232 506.356L50.7432 399.599L135.389 339.745L33.2116 322.215L55.3208 193.348L148.993 209.419L91.293 133.898L195.189 54.5185L262.92 143.168L281.785 33.2117L410.652 55.3209L393.122 157.498L477.768 97.643L553.257 204.399L468.61 264.255L570.788 281.785L548.679 410.652L455.007 394.581L512.707 470.102L408.812 549.482L341.08 460.832L322.215 570.789Z"/>
</mask>
<path fill-rule="evenodd" clip-rule="evenodd" d="M322.215 570.789L193.348 548.679L210.878 446.501L126.232 506.356L50.7432 399.599L135.389 339.745L33.2116 322.215L55.3208 193.348L148.993 209.419L91.293 133.898L195.189 54.5185L262.92 143.168L281.785 33.2117L410.652 55.3209L393.122 157.498L477.768 97.643L553.257 204.399L468.61 264.255L570.788 281.785L548.679 410.652L455.007 394.581L512.707 470.102L408.812 549.482L341.08 460.832L322.215 570.789Z" fill="#FFB444"/>
<path d="M193.348 548.679L189.406 548.003L188.729 551.945L192.672 552.622L193.348 548.679ZM322.215 570.789L321.539 574.731L325.481 575.407L326.157 571.465L322.215 570.789ZM210.878 446.501L214.821 447.177L216.454 437.659L208.569 443.235L210.878 446.501ZM126.232 506.356L122.966 508.665L125.276 511.931L128.542 509.622L126.232 506.356ZM50.7432 399.599L48.4338 396.333L45.1678 398.643L47.4772 401.909L50.7432 399.599ZM135.389 339.745L137.698 343.011L145.583 337.436L136.065 335.803L135.389 339.745ZM33.2116 322.215L29.2692 321.539L28.5928 325.481L32.5352 326.158L33.2116 322.215ZM55.3208 193.348L55.9972 189.406L52.0548 188.729L51.3784 192.672L55.3208 193.348ZM148.993 209.419L148.317 213.362L158.355 215.084L152.172 206.991L148.993 209.419ZM91.293 133.898L88.8646 130.72L85.6861 133.148L88.1146 136.327L91.293 133.898ZM195.189 54.5185L198.367 52.0901L195.939 48.9116L192.761 51.34L195.189 54.5185ZM262.92 143.168L259.742 145.597L265.311 152.887L266.863 143.845L262.92 143.168ZM281.785 33.2117L282.461 29.2693L278.519 28.5929L277.843 32.5353L281.785 33.2117ZM410.652 55.3209L414.594 55.9973L415.271 52.0549L411.328 51.3785L410.652 55.3209ZM393.122 157.498L389.179 156.822L387.546 166.339L395.431 160.764L393.122 157.498ZM477.768 97.643L481.034 95.3336L478.725 92.0676L475.459 94.3771L477.768 97.643ZM553.257 204.399L555.567 207.665L558.833 205.356L556.523 202.09L553.257 204.399ZM468.61 264.255L466.301 260.989L458.416 266.564L467.934 268.197L468.61 264.255ZM570.788 281.785L574.731 282.462L575.407 278.519L571.465 277.843L570.788 281.785ZM548.679 410.652L548.003 414.594L551.945 415.271L552.622 411.328L548.679 410.652ZM455.007 394.581L455.683 390.639L445.645 388.916L451.828 397.01L455.007 394.581ZM512.707 470.102L515.136 473.281L518.314 470.852L515.886 467.674L512.707 470.102ZM408.812 549.482L405.633 551.91L408.061 555.089L411.24 552.66L408.812 549.482ZM341.08 460.832L344.258 458.403L338.689 451.113L337.137 460.155L341.08 460.832ZM192.672 552.622L321.539 574.731L322.891 566.846L194.024 544.737L192.672 552.622ZM206.936 445.825L189.406 548.003L197.29 549.356L214.821 447.177L206.936 445.825ZM128.542 509.622L213.188 449.767L208.569 443.235L123.923 503.09L128.542 509.622ZM47.4772 401.909L122.966 508.665L129.498 504.046L54.0092 397.29L47.4772 401.909ZM133.079 336.479L48.4338 396.333L53.0526 402.865L137.698 343.011L133.079 336.479ZM32.5352 326.158L134.712 343.688L136.065 335.803L33.8879 318.273L32.5352 326.158ZM51.3784 192.672L29.2692 321.539L37.154 322.891L59.2632 194.025L51.3784 192.672ZM149.67 205.477L55.9972 189.406L54.6444 197.291L148.317 213.362L149.67 205.477ZM88.1146 136.327L145.815 211.848L152.172 206.991L94.4715 131.47L88.1146 136.327ZM192.761 51.34L88.8646 130.72L93.7215 137.077L197.617 57.697L192.761 51.34ZM266.099 140.74L198.367 52.0901L192.011 56.9469L259.742 145.597L266.099 140.74ZM277.843 32.5353L258.978 142.492L266.863 143.845L285.727 33.8881L277.843 32.5353ZM411.328 51.3785L282.461 29.2693L281.109 37.1541L409.976 59.2633L411.328 51.3785ZM397.064 158.174L414.594 55.9973L406.71 54.6446L389.179 156.822L397.064 158.174ZM475.459 94.3771L390.812 154.232L395.431 160.764L480.078 100.909L475.459 94.3771ZM556.523 202.09L481.034 95.3336L474.502 99.9525L549.991 206.709L556.523 202.09ZM470.919 267.521L555.567 207.665L550.948 201.133L466.301 260.989L470.919 267.521ZM571.465 277.843L469.286 260.312L467.934 268.197L570.112 285.728L571.465 277.843ZM552.622 411.328L574.731 282.462L566.846 281.109L544.737 409.976L552.622 411.328ZM454.331 398.523L548.003 414.594L549.356 406.71L455.683 390.639L454.331 398.523ZM515.886 467.674L458.185 392.153L451.828 397.01L509.529 472.531L515.886 467.674ZM411.24 552.66L515.136 473.281L510.279 466.924L406.383 546.304L411.24 552.66ZM337.901 463.26L405.633 551.91L411.99 547.054L344.258 458.403L337.901 463.26ZM326.157 571.465L345.022 461.508L337.137 460.155L318.273 570.112L326.157 571.465Z" fill="black" mask="url(#path-1-inside-1_1403_31)"/>
<path d="M405.73 266.892C400.956 276.816 389.043 282.638 372.829 283.465C356.701 284.287 336.829 280.103 317.1 270.612C297.371 261.121 281.7 248.205 272.277 235.091C262.804 221.907 259.917 208.965 264.692 199.041C269.466 189.116 281.379 183.294 297.593 182.468C313.721 181.645 333.593 185.829 353.322 195.32C373.051 204.811 388.722 217.727 398.145 230.841C407.618 244.025 410.505 256.967 405.73 266.892Z" fill="black" stroke="black" stroke-width="4"/>
<path d="M339.308 404.96C334.534 414.884 322.621 420.706 306.407 421.533C290.28 422.356 270.407 418.172 250.678 408.68C230.95 399.189 215.278 386.274 205.855 373.16C196.382 359.975 193.495 347.034 198.27 337.109C203.044 327.185 214.958 321.363 231.171 320.536C247.299 319.713 267.171 323.897 286.9 333.389C306.629 342.88 322.3 355.795 331.723 368.909C341.196 382.094 344.083 395.035 339.308 404.96Z" fill="#746BEB" stroke="black" stroke-width="4"/>
<path d="M266.505 199.914L200.716 336.667" stroke="black" stroke-width="4"/>
<path d="M403.916 266.019L338.127 402.773" stroke="black" stroke-width="4"/>
<path d="M317.657 269.456L251.551 406.867" stroke="black" stroke-width="4.19524"/>
</svg>
