<svg width="740" height="741" viewBox="0 0 740 741" fill="none" xmlns="http://www.w3.org/2000/svg">
<path d="M370.152 552.442C422.079 604.369 506.268 604.369 558.195 552.442L370.152 364.4C318.226 416.326 318.226 500.516 370.152 552.442Z" stroke="black" stroke-width="4"/>
<path d="M370.152 188.893C318.226 136.966 234.037 136.966 182.11 188.893L370.152 376.935C422.079 325.009 422.079 240.819 370.152 188.893Z" stroke="black" stroke-width="4"/>
<path d="M188.378 370.668C136.452 422.594 136.452 506.784 188.378 558.71L376.421 370.668C324.494 318.741 240.305 318.741 188.378 370.668Z" stroke="black" stroke-width="4"/>
<path d="M551.927 370.667C603.853 318.74 603.853 234.551 551.927 182.624L363.884 370.667C415.811 422.593 500 422.593 551.927 370.667Z" stroke="black" stroke-width="4"/>
<path d="M504.954 513.497C578.39 513.497 637.92 453.966 637.92 380.53L371.988 380.531C371.988 453.966 431.519 513.497 504.954 513.497Z" fill="#FFC700" stroke="black" stroke-width="4"/>
<path d="M247.887 256.429C174.451 256.429 114.921 315.96 114.921 389.395L380.853 389.395C380.853 315.96 321.322 256.429 247.887 256.429Z" fill="#3BB3BD" stroke="black" stroke-width="4"/>
<path d="M247.887 513.497C247.887 586.932 307.418 646.463 380.853 646.463L380.853 380.531C307.418 380.531 247.887 440.062 247.887 513.497Z" fill="#746BEB" stroke="black" stroke-width="4"/>
<path d="M504.954 256.429C504.954 182.993 445.424 123.462 371.988 123.462L371.988 389.395C445.423 389.395 504.954 329.864 504.954 256.429Z" fill="#BC7F7F" stroke="black" stroke-width="4"/>
</svg>
